<svg viewBox="0 0 28 28" preserveAspectRatio="xMidYMid meet" shape-rendering="geometricPrecision">
  <g>
    <path d="M19.1 11.7L19.1 11.7c-0.3 0.3-0.4 0.6-0.3 0.9 0.1 0.4 0.2 0.9 0.2 1.3 0 2.8-2.2 5-5 5v2c3.9 0 7-3.1 7-7 0-0.6-0.1-1.3-0.2-1.8C20.6 11.4 19.6 11.2 19.1 11.7z" fillRule="evenodd"/>
    <path d="M14 9V7c-3.9 0-7 3.1-7 7 0 0.6 0.1 1.2 0.2 1.8 0.2 0.7 1.1 1 1.7 0.4l0 0c0.2-0.2 0.4-0.6 0.3-0.9C9.1 14.9 9 14.5 9 14 9 11.2 11.2 9 14 9z" fillRule="evenodd"/>
    <path d="M18.2 8.6c0.4-0.3 0.4-0.9 0-1.2l-3.4-2.8C14.4 4.3 14 4.4 14 5v6c0 0.6 0.4 0.7 0.8 0.4L18.2 8.6z" fillRule="evenodd"/>
    <path d="M9.8 19.4c-0.4 0.3-0.4 0.9 0 1.2l3.4 2.8c0.4 0.3 0.8 0.2 0.8-0.4v-6c0-0.5-0.4-0.7-0.8-0.4L9.8 19.4z" fillRule="evenodd"/>
  </g>
</svg>